<svg version="1.0" xmlns="http://www.w3.org/2000/svg"
 width="150.000000pt" height="150.000000pt" viewBox="0 0 150.000000 150.000000"
 preserveAspectRatio="xMidYMid meet">
<g transform="translate(0.000000,150.000000) scale(0.100000,-0.100000)"
fill="#000000" stroke="none">
<path d="M0 750 l0 -750 750 0 750 0 0 750 0 750 -750 0 -750 0 0 -750z m1373
273 c56 -15 61 -15 72 0 11 15 13 14 19 -14 3 -17 6 -54 6 -82 l0 -50 -23 44
c-49 95 -186 119 -266 46 -80 -74 -83 -279 -5 -349 76 -67 194 -61 272 14 43
43 41 21 -2 -24 -95 -98 -265 -87 -358 22 -111 129 -51 334 114 391 66 23 96
23 171 2z m-1059 -4 c60 -17 96 -58 96 -111 0 -53 -19 -82 -71 -108 -21 -11
-39 -23 -39 -26 0 -3 32 -45 71 -92 43 -54 86 -95 112 -109 l42 -22 -67 -1
-68 0 -87 110 c-74 92 -93 110 -115 110 l-28 0 1 -72 c1 -96 8 -117 44 -133
27 -12 20 -13 -80 -14 l-110 -1 35 18 35 17 3 199 c3 206 -1 226 -39 226 -10
0 -21 5 -24 10 -9 14 239 13 289 -1z m656 -23 c0 -19 3 -41 6 -50 3 -9 1 -16
-5 -16 -6 0 -11 6 -11 14 0 8 -12 24 -26 35 -23 18 -41 21 -125 21 l-99 0 0
-90 0 -90 78 0 c81 0 102 9 102 42 0 10 5 18 10 18 6 0 10 -33 10 -80 0 -47
-4 -80 -10 -80 -5 0 -10 9 -10 19 0 38 -27 51 -106 51 l-74 0 0 -97 c0 -54 4
-103 8 -109 4 -6 21 -16 37 -22 25 -9 10 -10 -80 -11 -91 0 -106 2 -85 12 14
6 28 16 32 22 4 5 8 98 8 206 0 202 -3 219 -42 219 -10 0 -18 5 -18 10 0 6 73
10 200 10 l200 0 0 -34z"/>
<path d="M173 993 c-9 -3 -13 -33 -13 -99 l0 -94 40 0 c47 0 95 22 110 49 5
11 10 37 10 59 0 56 -38 92 -94 91 -22 0 -47 -3 -53 -6z"/>
</g>
</svg>
